<?xml version="1.0" encoding="utf-8"?>
<!-- Generator: Adobe Illustrator 23.0.1, SVG Export Plug-In . SVG Version: 6.00 Build 0)  -->
<svg version="1.1" id="C_x2B_G_x2B_C" xmlns="http://www.w3.org/2000/svg" xmlns:xlink="http://www.w3.org/1999/xlink" x="0px"
	 y="0px" viewBox="0 0 240 55" style="enable-background:new 0 0 240 55;" xml:space="preserve">
<style type="text/css">
	.st0{fill:#FFD85F;}
	.st1{fill:#3BB4E7;}
	.st2{fill:#ED5C68;}
	.st3{fill:#308BC5;}
	.st4{fill:#D5465F;}
	.st5{fill:#FFFFFF;}
	.st6{fill:#663399;}
	.st7{display:none;}
	.st8{display:inline;}
	.st9{display:inline;fill:#663399;}
</style>
<g id="C_x2B_G_x2B_C_white">
	<g id="contentful_1_">
		<path class="st0" d="M17.6,37.3c-2.7-2.5-4.2-5.9-4.2-9.8s1.6-7.3,4.1-9.8c2.2-2.2,2.2-5.6,0-7.8s-5.6-2.2-7.8,0
			c-4.4,4.5-7.2,10.8-7.2,17.7s2.8,13.1,7.3,17.7c2.2,2.2,5.6,2.2,7.8,0C19.7,43,19.7,39.5,17.6,37.3z"/>
		<path class="st1" d="M17.6,17.7c2.5-2.7,5.9-4.2,9.8-4.2s7.3,1.6,9.8,4.1c2.2,2.2,5.6,2.2,7.8,0s2.2-5.6,0-7.8
			c-4.5-4.4-10.8-7.2-17.7-7.2S14.3,5.3,9.8,9.8c-2.2,2.2-2.2,5.6,0,7.8C12,19.7,15.4,19.7,17.6,17.7z"/>
		<path class="st2" d="M37.3,37.3c-2.5,2.7-5.9,4.2-9.8,4.2s-7.3-1.6-9.8-4.1c-2.2-2.2-5.6-2.2-7.8,0s-2.2,5.6,0,7.8
			c4.5,4.4,10.8,7.2,17.7,7.2s13.1-2.8,17.7-7.3c2.2-2.2,2.2-5.6,0-7.8C42.9,35.3,39.5,35.3,37.3,37.3z"/>
		<circle class="st3" cx="13.7" cy="13.8" r="5.5"/>
		<circle class="st4" cx="13.7" cy="41.2" r="5.5"/>
	</g>
	<polygon id="plus_3_" class="st5" points="79.4,24.8 71.9,24.8 71.9,17.3 66.9,17.3 66.9,24.8 59.4,24.8 59.4,29.8 66.9,29.8 
		66.9,37.3 71.9,37.3 71.9,29.8 79.4,29.8 	"/>
	<path id="gatsby_1_" class="st6" d="M116.7,2.5c-13.8,0-25,11.2-25,25s11.2,25,25,25s25-11.2,25-25S130.5,2.5,116.7,2.5z
		 M102.8,41.4c-3.8-3.7-5.7-8.8-5.7-13.6l19.5,19.3C111.5,47,106.5,45.2,102.8,41.4z M121,46.6L97.6,23.2c2-8.8,9.8-15.4,19.1-15.4
		c6.6,0,12.3,3.2,15.9,8l-2.7,2.3c-3-4.1-7.9-6.8-13.2-6.8c-7,0-12.9,4.5-15.2,10.7l20.5,20.5c5.2-1.8,9.1-6.2,10.4-11.6h-8.6v-3.6
		h12.5C136.4,36.8,129.8,44.6,121,46.6z"/>
	<polygon id="plus_2_" class="st5" points="174.4,24.8 166.9,24.8 166.9,17.3 161.9,17.3 161.9,24.8 154.4,24.8 154.4,29.8 
		161.9,29.8 161.9,37.3 166.9,37.3 166.9,29.8 174.4,29.8 	"/>
	<g id="commercelayer_1_">
		<path id="bottom-bracket_1_" class="st5" d="M231.4,32.8V40c0,0.5-0.2,1-0.6,1.3c-0.4,0.3-0.9,0.6-1.4,0.5h-11.1
			c-0.9,0-1.8,0.1-2.7,0.4c-0.6,0.2-1.2,0.6-1.7,1c-0.6,0.5-1,1.1-1.4,1.7c-0.3-0.7-0.8-1.2-1.4-1.7c-0.5-0.4-1.1-0.8-1.7-1
			c-0.9-0.3-1.8-0.5-2.7-0.4h-11.1c-0.5,0-1-0.2-1.4-0.6c-0.4-0.3-0.6-0.8-0.6-1.3v-7.2h-6.1V40c0,1.1,0.2,2.2,0.6,3.2
			c0.4,1,0.9,1.8,1.7,2.6c0.7,0.7,1.6,1.3,2.6,1.6c1,0.4,2.1,0.6,3.2,0.5h11.1c1,0,2.1,0,2.3,0.5c0.4,0.7,0.6,1.8,0.6,3.3v0.8h6.1
			v-0.8c0-1.5,0.2-2.6,0.6-3.3c0.2-0.5,1.3-0.5,2.3-0.5h11.1c1.1,0,2.2-0.2,3.2-0.5c0.9-0.4,1.8-0.9,2.6-1.6
			c0.8-0.7,1.3-1.6,1.7-2.6c0.4-1,0.6-2.1,0.6-3.2v-7.2L231.4,32.8L231.4,32.8z"/>
		<rect id="right-eye_1_" x="216.3" y="22.2" class="st5" width="10.6" height="10.6"/>
		<rect id="left-eye_1_" x="198.1" y="22.2" class="st5" width="10.6" height="10.6"/>
		<path id="top-bracket_1_" class="st5" d="M236.9,11.8L236.9,11.8c-0.4-1-0.9-1.8-1.7-2.6c-0.7-0.7-1.6-1.3-2.6-1.6
			c-1-0.4-2.1-0.6-3.2-0.5h-11.1c-1,0-2.1,0-2.3-0.5c-0.4-0.7-0.6-1.8-0.6-3.3V2.5h-6.1v0.8c0,1.5-0.2,2.6-0.6,3.3
			C208.6,7,207.5,7,206.6,7h-11.1c-1.1,0-2.2,0.2-3.2,0.5c-1,0.4-1.8,0.9-2.6,1.6c-0.7,0.7-1.3,1.6-1.7,2.6c-0.4,1-0.6,2.1-0.6,3.2
			v7.2h6.1V15c0-0.5,0.2-1,0.6-1.3c0.4-0.4,0.9-0.6,1.4-0.6h11.1c0.9,0,1.8-0.1,2.7-0.4c0.6-0.2,1.2-0.6,1.7-1
			c0.6-0.5,1-1.1,1.4-1.7c0.3,0.7,0.8,1.2,1.4,1.7c0.5,0.4,1.1,0.8,1.7,1c0.9,0.3,1.8,0.5,2.7,0.4h11.1c0.5,0,1,0.2,1.4,0.6
			c0.4,0.3,0.6,0.8,0.6,1.3v7.2h6.1V15C237.5,13.9,237.3,12.8,236.9,11.8z"/>
	</g>
</g>
<g id="C_x2B_G_x2B_C_black" class="st7">
	<g id="contentful" class="st8">
		<path class="st0" d="M17.6,37.3c-2.7-2.5-4.2-5.9-4.2-9.8s1.6-7.3,4.1-9.8c2.2-2.2,2.2-5.6,0-7.8s-5.6-2.2-7.8,0
			c-4.4,4.5-7.2,10.8-7.2,17.7s2.8,13.1,7.3,17.7c2.2,2.2,5.6,2.2,7.8,0C19.7,43,19.7,39.5,17.6,37.3z"/>
		<path class="st1" d="M17.6,17.7c2.5-2.7,5.9-4.2,9.8-4.2s7.3,1.6,9.8,4.1c2.2,2.2,5.6,2.2,7.8,0s2.2-5.6,0-7.8
			c-4.5-4.4-10.8-7.2-17.7-7.2S14.3,5.3,9.8,9.8c-2.2,2.2-2.2,5.6,0,7.8C12,19.7,15.4,19.7,17.6,17.7z"/>
		<path class="st2" d="M37.3,37.3c-2.5,2.7-5.9,4.2-9.8,4.2s-7.3-1.6-9.8-4.1c-2.2-2.2-5.6-2.2-7.8,0s-2.2,5.6,0,7.8
			c4.5,4.4,10.8,7.2,17.7,7.2s13.1-2.8,17.7-7.3c2.2-2.2,2.2-5.6,0-7.8C42.9,35.3,39.5,35.3,37.3,37.3z"/>
		<circle class="st3" cx="13.7" cy="13.8" r="5.5"/>
		<circle class="st4" cx="13.7" cy="41.2" r="5.5"/>
	</g>
	<polygon id="plus_1_" class="st8" points="79.4,24.8 71.9,24.8 71.9,17.3 66.9,17.3 66.9,24.8 59.4,24.8 59.4,29.8 66.9,29.8 
		66.9,37.3 71.9,37.3 71.9,29.8 79.4,29.8 	"/>
	<path id="gatsby" class="st9" d="M116.7,2.5c-13.8,0-25,11.2-25,25s11.2,25,25,25s25-11.2,25-25S130.5,2.5,116.7,2.5z M102.8,41.4
		c-3.8-3.7-5.7-8.8-5.7-13.6l19.5,19.3C111.5,47,106.5,45.2,102.8,41.4z M121,46.6L97.6,23.2c2-8.8,9.8-15.4,19.1-15.4
		c6.6,0,12.3,3.2,15.9,8l-2.7,2.3c-3-4.1-7.9-6.8-13.2-6.8c-7,0-12.9,4.5-15.2,10.7l20.5,20.5c5.2-1.8,9.1-6.2,10.4-11.6h-8.6v-3.6
		h12.5C136.4,36.8,129.8,44.6,121,46.6z"/>
	<polygon id="plus" class="st8" points="174.4,24.8 166.9,24.8 166.9,17.3 161.9,17.3 161.9,24.8 154.4,24.8 154.4,29.8 161.9,29.8 
		161.9,37.3 166.9,37.3 166.9,29.8 174.4,29.8 	"/>
	<g id="commercelayer" class="st8">
		<path id="bottom-bracket" d="M231.4,32.8V40c0,0.5-0.2,1-0.6,1.3c-0.4,0.3-0.9,0.6-1.4,0.5h-11.1c-0.9,0-1.8,0.1-2.7,0.4
			c-0.6,0.2-1.2,0.6-1.7,1c-0.6,0.5-1,1.1-1.4,1.7c-0.3-0.7-0.8-1.2-1.4-1.7c-0.5-0.4-1.1-0.8-1.7-1c-0.9-0.3-1.8-0.5-2.7-0.4h-11.1
			c-0.5,0-1-0.2-1.4-0.6c-0.4-0.3-0.6-0.8-0.6-1.3v-7.2h-6.1V40c0,1.1,0.2,2.2,0.6,3.2c0.4,1,0.9,1.8,1.7,2.6
			c0.7,0.7,1.6,1.3,2.6,1.6c1,0.4,2.1,0.6,3.2,0.5h11.1c1,0,2.1,0,2.3,0.5c0.4,0.7,0.6,1.8,0.6,3.3v0.8h6.1v-0.8
			c0-1.5,0.2-2.6,0.6-3.3c0.2-0.5,1.3-0.5,2.3-0.5h11.1c1.1,0,2.2-0.2,3.2-0.5c0.9-0.4,1.8-0.9,2.6-1.6c0.8-0.7,1.3-1.6,1.7-2.6
			c0.4-1,0.6-2.1,0.6-3.2v-7.2L231.4,32.8L231.4,32.8z"/>
		<rect id="right-eye" x="216.3" y="22.2" width="10.6" height="10.6"/>
		<rect id="left-eye" x="198.1" y="22.2" width="10.6" height="10.6"/>
		<path id="top-bracket" d="M236.9,11.8L236.9,11.8c-0.4-1-0.9-1.8-1.7-2.6c-0.7-0.7-1.6-1.3-2.6-1.6c-1-0.4-2.1-0.6-3.2-0.5h-11.1
			c-1,0-2.1,0-2.3-0.5c-0.4-0.7-0.6-1.8-0.6-3.3V2.5h-6.1v0.8c0,1.5-0.2,2.6-0.6,3.3C208.6,7,207.5,7,206.6,7h-11.1
			c-1.1,0-2.2,0.2-3.2,0.5c-1,0.4-1.8,0.9-2.6,1.6c-0.7,0.7-1.3,1.6-1.7,2.6c-0.4,1-0.6,2.1-0.6,3.2v7.2h6.1V15c0-0.5,0.2-1,0.6-1.3
			c0.4-0.4,0.9-0.6,1.4-0.6h11.1c0.9,0,1.8-0.1,2.7-0.4c0.6-0.2,1.2-0.6,1.7-1c0.6-0.5,1-1.1,1.4-1.7c0.3,0.7,0.8,1.2,1.4,1.7
			c0.5,0.4,1.1,0.8,1.7,1c0.9,0.3,1.8,0.5,2.7,0.4h11.1c0.5,0,1,0.2,1.4,0.6c0.4,0.3,0.6,0.8,0.6,1.3v7.2h6.1V15
			C237.5,13.9,237.3,12.8,236.9,11.8z"/>
	</g>
</g>
</svg>
