<svg enable-background="new 0 0 240 55" viewBox="0 0 240 55" xmlns="http://www.w3.org/2000/svg"><path d="m17.6 37.3c-2.7-2.5-4.2-5.9-4.2-9.8s1.6-7.3 4.1-9.8c2.2-2.2 2.2-5.6 0-7.8s-5.6-2.2-7.8 0c-4.4 4.5-7.2 10.8-7.2 17.7s2.8 13.1 7.3 17.7c2.2 2.2 5.6 2.2 7.8 0 2.1-2.3 2.1-5.8 0-8z" fill="#ffd85f"/><path d="m17.6 17.7c2.5-2.7 5.9-4.2 9.8-4.2s7.3 1.6 9.8 4.1c2.2 2.2 5.6 2.2 7.8 0s2.2-5.6 0-7.8c-4.5-4.4-10.8-7.2-17.7-7.2s-13 2.7-17.5 7.2c-2.2 2.2-2.2 5.6 0 7.8 2.2 2.1 5.6 2.1 7.8.1z" fill="#3bb4e7"/><path d="m37.3 37.3c-2.5 2.7-5.9 4.2-9.8 4.2s-7.3-1.6-9.8-4.1c-2.2-2.2-5.6-2.2-7.8 0s-2.2 5.6 0 7.8c4.5 4.4 10.8 7.2 17.7 7.2s13.1-2.8 17.7-7.3c2.2-2.2 2.2-5.6 0-7.8-2.4-2-5.8-2-8 0z" fill="#ed5c68"/><circle cx="13.7" cy="13.8" fill="#308bc5" r="5.5"/><circle cx="13.7" cy="41.2" fill="#d5465f" r="5.5"/><path d="m79.4 24.8h-7.5v-7.5h-5v7.5h-7.5v5h7.5v7.5h5v-7.5h7.5z" fill="#fff"/><path d="m116.7 2.5c-13.8 0-25 11.2-25 25s11.2 25 25 25 25-11.2 25-25-11.2-25-25-25z" fill="#639"/><g fill="#fff"><path d="m102.8 41.4c-3.8-3.7-5.7-8.8-5.7-13.6l19.5 19.3c-5.1-.1-10.1-1.9-13.8-5.7z"/><path d="m121 46.6-23.4-23.4c2-8.8 9.8-15.4 19.1-15.4 6.6 0 12.3 3.2 15.9 8l-2.7 2.3c-3-4.1-7.9-6.8-13.2-6.8-7 0-12.9 4.5-15.2 10.7l20.5 20.5c5.2-1.8 9.1-6.2 10.4-11.6h-8.6v-3.6h12.5c.1 9.5-6.5 17.3-15.3 19.3z"/><path d="m174.4 24.8h-7.5v-7.5h-5v7.5h-7.5v5h7.5v7.5h5v-7.5h7.5z"/><path d="m231.4 32.8v7.2c0 .5-.2 1-.6 1.3s-.9.6-1.4.5h-11.1c-.9 0-1.8.1-2.7.4-.6.2-1.2.6-1.7 1-.6.5-1 1.1-1.4 1.7-.3-.7-.8-1.2-1.4-1.7-.5-.4-1.1-.8-1.7-1-.9-.3-1.8-.5-2.7-.4h-11.1c-.5 0-1-.2-1.4-.6-.4-.3-.6-.8-.6-1.3v-7.2h-6.1v7.3c0 1.1.2 2.2.6 3.2s.9 1.8 1.7 2.6c.7.7 1.6 1.3 2.6 1.6 1 .4 2.1.6 3.2.5h11.1c1 0 2.1 0 2.3.5.4.7.6 1.8.6 3.3v.8h6.1v-.8c0-1.5.2-2.6.6-3.3.2-.5 1.3-.5 2.3-.5h11.1c1.1 0 2.2-.2 3.2-.5.9-.4 1.8-.9 2.6-1.6s1.3-1.6 1.7-2.6.6-2.1.6-3.2v-7.2z"/><path d="m216.3 22.2h10.6v10.6h-10.6z"/><path d="m198.1 22.2h10.6v10.6h-10.6z"/><path d="m236.9 11.8c-.4-1-.9-1.8-1.7-2.6-.7-.7-1.6-1.3-2.6-1.6-1-.4-2.1-.6-3.2-.5h-11.1c-1 0-2.1 0-2.3-.5-.4-.7-.6-1.8-.6-3.3v-.8h-6.1v.8c0 1.5-.2 2.6-.6 3.3-.1.4-1.2.4-2.1.4h-11.1c-1.1 0-2.2.2-3.2.5-1 .4-1.8.9-2.6 1.6-.7.7-1.3 1.6-1.7 2.6s-.6 2.1-.6 3.2v7.2h6.1v-7.1c0-.5.2-1 .6-1.3.4-.4.9-.6 1.4-.6h11.1c.9 0 1.8-.1 2.7-.4.6-.2 1.2-.6 1.7-1 .6-.5 1-1.1 1.4-1.7.3.7.8 1.2 1.4 1.7.5.4 1.1.8 1.7 1 .9.3 1.8.5 2.7.4h11.1c.5 0 1 .2 1.4.6.4.3.6.8.6 1.3v7.2h6.1v-7.2c.1-1.1-.1-2.2-.5-3.2z"/></g></svg>